<?xml version="1.0" encoding="utf-8"?>
<!-- Generator: Adobe Illustrator 27.8.0, SVG Export Plug-In . SVG Version: 6.00 Build 0)  -->
<svg version="1.0" id="Layer_1" xmlns="http://www.w3.org/2000/svg" xmlns:xlink="http://www.w3.org/1999/xlink" x="0px" y="0px"
	 viewBox="0 0 800.6 61.3" style="enable-background:new 0 0 800.6 61.3;" xml:space="preserve">
<style type="text/css">
	.st0{opacity:0.6;fill:url(#SVGID_1_);}
	.st1{opacity:0.5;}
	.st2{fill:url(#SVGID_00000057139165016411688860000009028223779600028076_);}
	.st3{fill:#FFFFFF;}
	.st4{fill:none;stroke:#000000;stroke-miterlimit:10;}
	.st5{fill:#283337;}
	.st6{clip-path:url(#SVGID_00000127015001904045930520000012238347301899592372_);}
	
		.st7{clip-path:url(#SVGID_00000127015001904045930520000012238347301899592372_);fill:url(#SVGID_00000174560267977636777260000005551426012966478011_);}
	.st8{clip-path:url(#SVGID_00000175319065524479650430000014225281200648691333_);}
	.st9{fill:#E8E8E8;}
	.st10{fill:#B7DCDF;}
	.st11{fill:#293438;}
	.st12{fill:#2A3539;}
	.st13{fill:#2B363A;}
	.st14{fill:#2B373B;}
	.st15{fill:#2C383C;}
	.st16{fill:#2D393D;}
	.st17{fill:#2E3A3E;}
	.st18{fill:#2F3B3F;}
	.st19{fill:#303C40;}
	.st20{fill:#303D41;}
	.st21{fill:#313E42;}
	.st22{fill:#323F43;}
	.st23{fill:#334044;}
	.st24{fill:#344145;}
	.st25{fill:#354246;}
	.st26{fill:#364347;}
	.st27{fill:#364448;}
	.st28{fill:#374549;}
	.st29{fill:#38464A;}
	.st30{fill:#39474B;}
	.st31{fill:#3A484C;}
	.st32{fill:#3B494D;}
	.st33{fill:#3C4A4E;}
	.st34{fill:#3C4B4F;}
	.st35{fill:#3D4C50;}
	.st36{fill:#3E4D51;}
	.st37{fill:#3F4E52;}
	.st38{fill:#404F53;}
	.st39{fill:#415054;}
	.st40{fill:#415155;}
	.st41{fill:#425256;}
	.st42{fill:#435357;}
	.st43{fill:#445458;}
	.st44{fill:#455559;}
	.st45{fill:#46565A;}
	.st46{fill:#47575B;}
	.st47{fill:#47585C;}
	.st48{fill:#48595D;}
	.st49{fill:#495A5E;}
	.st50{fill:#4A5B5F;}
	.st51{fill:#4B5C60;}
	.st52{fill:#4C5D61;}
	.st53{fill:#4C5E62;}
	.st54{fill:#4D5F63;}
	.st55{fill:#4E6064;}
	.st56{fill:#4F6165;}
	.st57{fill:#506266;}
	.st58{fill:#516367;}
	.st59{fill:#526468;}
	.st60{fill:#526569;}
	.st61{fill:#53666A;}
	.st62{fill:#54676B;}
	.st63{fill:#55686C;}
	.st64{fill:#56696D;}
	.st65{fill:#576A6E;}
	.st66{fill:#576B6F;}
	.st67{fill:#586C70;}
	.st68{fill:#596D71;}
	.st69{fill:#5A6E72;}
	.st70{fill:#5B6F73;}
	.st71{fill:#5C7074;}
	.st72{fill:#5D7175;}
	.st73{fill:#5D7276;}
	.st74{fill:#5E7377;}
	.st75{fill:#5F7478;}
	.st76{fill:#607579;}
	.st77{fill:#61767A;}
	.st78{fill:#62777B;}
	.st79{fill:#63787C;}
	.st80{fill:#63797D;}
	.st81{fill:#647A7E;}
	.st82{fill:#657B7F;}
	.st83{fill:#667C80;}
	.st84{fill:#677D80;}
	.st85{fill:#687E80;}
	.st86{fill:#687F81;}
	.st87{fill:#698082;}
	.st88{fill:#6A8083;}
	.st89{fill:#6B8084;}
	.st90{fill:#6C8185;}
	.st91{fill:#6D8286;}
	.st92{fill:#6E8387;}
	.st93{fill:#6E8488;}
	.st94{fill:#6F8589;}
	.st95{fill:#70868A;}
	.st96{fill:#71878A;}
	.st97{fill:#72888B;}
	.st98{fill:#73898C;}
	.st99{fill:#738A8D;}
	.st100{fill:#748B8E;}
	.st101{fill:#758C8F;}
	.st102{fill:#768D90;}
	.st103{fill:#778E91;}
	.st104{fill:#788F92;}
	.st105{fill:#799093;}
	.st106{fill:#799194;}
	.st107{fill:#7A9295;}
	.st108{fill:#7B9396;}
	.st109{fill:#7C9497;}
	.st110{fill:#7D9598;}
	.st111{fill:#7E9699;}
	.st112{fill:#7E979A;}
	.st113{fill:#7F989B;}
	.st114{fill:#80999C;}
	.st115{fill:#809A9D;}
	.st116{fill:#809B9E;}
	.st117{fill:#819C9F;}
	.st118{fill:#829DA0;}
	.st119{fill:#829EA1;}
	.st120{fill:#839FA2;}
	.st121{fill:#84A0A3;}
	.st122{fill:#85A1A4;}
	.st123{fill:#86A2A5;}
	.st124{fill:#87A3A6;}
	.st125{fill:#88A4A7;}
	.st126{fill:#88A5A8;}
	.st127{fill:#89A6A9;}
	.st128{fill:#8AA7AA;}
	.st129{fill:#8BA8AB;}
	.st130{fill:#8CA9AC;}
	.st131{fill:#8DAAAD;}
	.st132{fill:#8DABAE;}
	.st133{fill:#8EACAF;}
	.st134{fill:#8FADB0;}
	.st135{fill:#90AEB1;}
	.st136{fill:#91AFB2;}
	.st137{fill:#92B0B3;}
	.st138{fill:#93B1B4;}
	.st139{fill:#93B2B5;}
	.st140{fill:#94B3B6;}
	.st141{fill:#95B4B7;}
	.st142{fill:#96B5B8;}
	.st143{fill:#97B6B9;}
	.st144{fill:#98B7BA;}
	.st145{fill:#98B8BB;}
	.st146{fill:#99B9BC;}
	.st147{fill:#9ABABD;}
	.st148{fill:#9BBBBE;}
	.st149{fill:#9CBCBF;}
	.st150{fill:#9DBDC0;}
	.st151{fill:#9EBEC1;}
	.st152{fill:#9EBFC2;}
	.st153{fill:#9FC0C3;}
	.st154{fill:#A0C1C4;}
	.st155{fill:#A1C2C5;}
	.st156{fill:#A2C3C6;}
	.st157{fill:#A3C4C7;}
	.st158{fill:#A3C5C8;}
	.st159{fill:#A4C6C9;}
	.st160{fill:#A5C7CA;}
	.st161{fill:#A6C8CB;}
	.st162{fill:#A7C9CC;}
	.st163{fill:#A8CACD;}
	.st164{fill:#A9CBCE;}
	.st165{fill:#A9CCCF;}
	.st166{fill:#AACDD0;}
	.st167{fill:#ABCED1;}
	.st168{fill:#ACCFD2;}
	.st169{fill:#ADD0D3;}
	.st170{fill:#AED1D4;}
	.st171{fill:#AFD2D5;}
	.st172{fill:#AFD3D6;}
	.st173{fill:#B0D4D7;}
	.st174{fill:#B1D5D8;}
	.st175{fill:#B2D6D9;}
	.st176{fill:#B3D7DA;}
	.st177{fill:#B4D8DB;}
	.st178{fill:#B4D9DC;}
	.st179{fill:#B5DADD;}
	.st180{fill:#B6DBDE;}
	.st181{opacity:0.2;}
	.st182{fill:#324045;}
	.st183{fill:#617B80;}
	.st184{clip-path:url(#SVGID_00000023959166051833667060000006264277870660602042_);}
	.st185{opacity:0.3;}
	.st186{fill:#C9CBCC;}
	.st187{fill:#C2C2C2;}
	.st188{clip-path:url(#SVGID_00000117638220037275971340000014062353073113022889_);}
	.st189{clip-path:url(#SVGID_00000082362035674021859890000015184623421269695906_);}
	.st190{clip-path:url(#SVGID_00000121985233707178372360000013692537422950468794_);}
	.st191{clip-path:url(#SVGID_00000062885051418894620440000003649321496767554236_);}
	.st192{clip-path:url(#SVGID_00000126315412171066278310000016048643723832903081_);}
	.st193{fill:url(#SVGID_00000016050870125906437330000017572204082508008885_);}
	.st194{clip-path:url(#SVGID_00000064315823238554600530000014651578050410661301_);}
	.st195{fill:#C17E61;}
	.st196{fill:#B87657;}
	.st197{opacity:5.000000e-02;}
	.st198{clip-path:url(#SVGID_00000065786137608821132920000016854553120128403106_);}
	.st199{clip-path:url(#SVGID_00000034055261604771473740000008414079249878803633_);}
	.st200{clip-path:url(#SVGID_00000120531562612137996340000003255603865784948927_);}
	.st201{opacity:0.3;clip-path:url(#SVGID_00000098925906488312635640000008726762832119040422_);}
	.st202{fill:none;stroke:#283337;stroke-width:1.5;stroke-miterlimit:10;}
	.st203{fill:url(#SVGID_00000180354062880197397920000009494004972418867076_);}
	.st204{fill:none;stroke:#B7DCDF;stroke-miterlimit:10;}
	.st205{fill:#B7DCDF;stroke:#B7DCDF;stroke-width:0.3883;stroke-miterlimit:10;}
	.st206{fill:#1C5076;}
	.st207{fill:none;stroke:#F3F2F1;stroke-width:1.6;stroke-linejoin:round;stroke-miterlimit:10;}
	.st208{clip-path:url(#SVGID_00000003072911046119367100000011387511255599230125_);}
	.st209{clip-path:url(#SVGID_00000019665277813976201080000005385880639905479859_);}
	.st210{opacity:0.6;}
	.st211{fill:#333333;}
	.st212{clip-path:url(#SVGID_00000015349907780791383470000017927433495963367320_);}
	.st213{clip-path:url(#SVGID_00000014604710815006412260000011528904653912977297_);}
</style>
<g>
	<polygon class="st10" points="40.9,24.2 8.8,24.2 8.8,0.4 0,0.4 0,59.8 8.8,59.8 8.8,32.7 40.9,32.7 40.9,59.8 49.7,59.8 49.7,0.4 
		40.9,0.4 	"/>
	<rect x="69.1" y="0.4" class="st10" width="8.8" height="59.5"/>
	<g>
		<path class="st10" d="M274.9,0l-25,59.8h9.5l4.4-10.5h27.7l4.4,10.5h9.7L280.5,0H274.9z M267.2,41l10.3-24.9l0.1-0.2l0.1,0.3
			L288,41H267.2z"/>
		<polygon class="st10" points="323.7,0.4 314.9,0.4 314.9,59.8 348.7,59.8 348.7,51.3 323.7,51.3 		"/>
		<polygon class="st10" points="368.6,31.8 393.5,31.8 393.5,23.5 368.6,23.5 368.6,8.8 395.5,8.8 395.5,0.4 359.7,0.4 359.7,59.8 
			396.3,59.8 396.3,51.4 368.6,51.4 		"/>
		<polygon class="st10" points="451.2,24.2 419.1,24.2 419.1,0.4 410.3,0.4 410.3,59.8 419.1,59.8 419.1,32.7 451.2,32.7 
			451.2,59.8 460,59.8 460,0.4 451.2,0.4 		"/>
		<polygon class="st10" points="209.8,0 190.1,47.2 170.8,0 162.7,0 143.1,47.2 123.8,0 115.7,0 90.3,59.8 100.1,59.8 119.7,12.6 
			139,59.8 147.1,59.8 166.8,12.6 186.1,59.8 194.2,59.8 213.8,12.6 233.5,59.8 243.2,59.8 217.9,0 		"/>
		<path class="st10" d="M536.7,29c-2.4-1.7-4.8-3.3-7.2-4.9c-2.2-1.4-4-3.1-5.5-4.9c-1.3-1.6-1.9-3.2-1.9-5c0-1.8,0-5.6,8.5-5.6
			c3.3,0,6.6,0.7,10,2.1l2.4,1l3.3-7.6L543.9,3c-4.2-2-8.8-3-13.7-3c-5.1,0-9.3,1.2-12.4,3.7c-3.3,2.6-5,6.2-5,10.6
			c0,3.3,1,6.3,3,9.2c1.8,2.6,4.1,4.9,6.7,6.8c2.4,1.7,4.8,3.4,7.2,5.1c2.2,1.5,4,3.2,5.5,5c1.3,1.6,1.9,3.2,1.9,4.8
			c0,2.5-0.8,4.2-2.4,5.5c-1.9,1.4-4.7,2.1-8.5,2.1c-3.9,0-7.3-1-10.6-3.1l-2.2-1.4l-4.6,7l2,1.5c4.3,3.1,9.5,4.7,15.4,4.7
			c6,0,10.8-1.4,14.4-4.1c3.8-2.9,5.7-7.1,5.7-12.5c0-3.3-1-6.3-3-9.1C541.5,33.1,539.3,30.8,536.7,29"/>
		<rect x="608.3" y="0.9" class="st10" width="8.8" height="59.5"/>
		<path class="st10" d="M672,48.6c-0.7-0.8-2.5-3.1-5.2-6.6c-2.1-2.7-3.9-5.1-5.4-7.1c1.8-1.6,3.5-3.5,5-5.8
			c2.2-3.3,3.3-6.8,3.3-10.6c0-5.7-2-10.1-6-13.3c-3.8-3-8.6-4.5-14.4-4.5c-3.3,0-7.3,0.2-12.3,0.5l-2.4,0.2v59h8.8V38.2
			c3,0.2,6.2,0.3,9.6,0.3c6.6,9,10.7,14.3,12.5,16.2c2,2,4.1,3.6,6.3,4.6c2.2,1,5.1,1.6,8.6,1.6l2.6,0l0.2-7.4l-2.4-0.3
			C677.6,53,674.7,51.4,672,48.6 M657.4,26.8c-2,2.3-3.8,3.5-5.2,3.5c-2.7,0-5.6-0.1-8.7-0.2V9.2c2-0.1,3.8-0.2,5.4-0.2
			c3.7,0,6.6,0.8,8.8,2.5c1.9,1.5,2.9,3.7,2.9,6.7C660.6,21.5,659.6,24.3,657.4,26.8"/>
		<rect x="693.3" y="0.9" class="st10" width="8.8" height="59.5"/>
		<polygon class="st10" points="713.2,9.3 731.5,9.3 731.5,60.4 740.4,60.4 740.4,9.3 758.7,9.3 758.7,0.9 713.2,0.9 		"/>
		<path class="st10" d="M797.6,35.6c-1.8-2.5-4.1-4.8-6.7-6.6c-2.4-1.7-4.8-3.3-7.2-4.9c-2.2-1.4-4-3.1-5.5-4.9
			c-1.3-1.6-1.9-3.2-1.9-5c0-1.8,0-5.6,8.5-5.6c3.3,0,6.6,0.7,10,2.1l2.4,1l3.3-7.6L798.2,3c-4.2-2-8.8-3-13.7-3
			c-5.1,0-9.3,1.2-12.4,3.7c-3.3,2.6-5,6.2-5,10.6c0,3.3,1,6.3,3,9.2c1.8,2.6,4.1,4.9,6.7,6.8c2.4,1.7,4.8,3.4,7.2,5.1
			c2.2,1.5,4,3.2,5.5,5c1.3,1.6,1.9,3.2,1.9,4.8c0,2.5-0.8,4.2-2.4,5.5c-1.9,1.4-4.7,2.1-8.5,2.1c-3.9,0-7.3-1-10.6-3.1l-2.2-1.4
			l-4.6,7l2,1.5c4.3,3.1,9.5,4.7,15.4,4.7c6,0,10.8-1.4,14.4-4.1c3.8-2.9,5.7-7.1,5.7-12.5C800.6,41.4,799.6,38.4,797.6,35.6"/>
		<path class="st10" d="M589,4.3c-3.7-2.9-8.6-4.3-14.5-4.3c-4,0-8.3,0.2-12.6,0.6l-2.4,0.2v59.5h8.9V37.6h1.4
			c6.7,0,12.5-1.8,17.4-5.4c5.1-3.8,7.7-8.6,7.7-14.5C594.9,11.8,592.9,7.3,589,4.3 M581.1,26.3c-3.3,2.4-7.1,3.5-11.7,3.5h-1.1V8.7
			c2-0.1,3.8-0.2,5.4-0.2c3.8,0,6.8,0.8,8.9,2.4c1.9,1.4,2.8,3.7,2.8,7.2C585.6,21.5,584.2,24.2,581.1,26.3"/>
	</g>
</g>
</svg>
